<svg aria-roledescription="flowchart-v2" role="graphics-document document" viewBox="0 0 2726.625 865.2156982421875" style="max-width: 2726.62px; background-color: white;" class="flowchart" xmlns:xlink="http://www.w3.org/1999/xlink" xmlns="http://www.w3.org/2000/svg" width="100%" id="my-svg"><style>#my-svg{font-family:"trebuchet ms",verdana,arial,sans-serif;font-size:16px;fill:#333;}@keyframes edge-animation-frame{from{stroke-dashoffset:0;}}@keyframes dash{to{stroke-dashoffset:0;}}#my-svg .edge-animation-slow{stroke-dasharray:9,5!important;stroke-dashoffset:900;animation:dash 50s linear infinite;stroke-linecap:round;}#my-svg .edge-animation-fast{stroke-dasharray:9,5!important;stroke-dashoffset:900;animation:dash 20s linear infinite;stroke-linecap:round;}#my-svg .error-icon{fill:#552222;}#my-svg .error-text{fill:#552222;stroke:#552222;}#my-svg .edge-thickness-normal{stroke-width:1px;}#my-svg .edge-thickness-thick{stroke-width:3.5px;}#my-svg .edge-pattern-solid{stroke-dasharray:0;}#my-svg .edge-thickness-invisible{stroke-width:0;fill:none;}#my-svg .edge-pattern-dashed{stroke-dasharray:3;}#my-svg .edge-pattern-dotted{stroke-dasharray:2;}#my-svg .marker{fill:#333333;stroke:#333333;}#my-svg .marker.cross{stroke:#333333;}#my-svg svg{font-family:"trebuchet ms",verdana,arial,sans-serif;font-size:16px;}#my-svg p{margin:0;}#my-svg .label{font-family:"trebuchet ms",verdana,arial,sans-serif;color:#333;}#my-svg .cluster-label text{fill:#333;}#my-svg .cluster-label span{color:#333;}#my-svg .cluster-label span p{background-color:transparent;}#my-svg .label text,#my-svg span{fill:#333;color:#333;}#my-svg .node rect,#my-svg .node circle,#my-svg .node ellipse,#my-svg .node polygon,#my-svg .node path{fill:#ECECFF;stroke:#9370DB;stroke-width:1px;}#my-svg .rough-node .label text,#my-svg .node .label text,#my-svg .image-shape .label,#my-svg .icon-shape .label{text-anchor:middle;}#my-svg .node .katex path{fill:#000;stroke:#000;stroke-width:1px;}#my-svg .rough-node .label,#my-svg .node .label,#my-svg .image-shape .label,#my-svg .icon-shape .label{text-align:center;}#my-svg .node.clickable{cursor:pointer;}#my-svg .root .anchor path{fill:#333333!important;stroke-width:0;stroke:#333333;}#my-svg .arrowheadPath{fill:#333333;}#my-svg .edgePath .path{stroke:#333333;stroke-width:2.0px;}#my-svg .flowchart-link{stroke:#333333;fill:none;}#my-svg .edgeLabel{background-color:rgba(232,232,232, 0.8);text-align:center;}#my-svg .edgeLabel p{background-color:rgba(232,232,232, 0.8);}#my-svg .edgeLabel rect{opacity:0.5;background-color:rgba(232,232,232, 0.8);fill:rgba(232,232,232, 0.8);}#my-svg .labelBkg{background-color:rgba(232, 232, 232, 0.5);}#my-svg .cluster rect{fill:#ffffde;stroke:#aaaa33;stroke-width:1px;}#my-svg .cluster text{fill:#333;}#my-svg .cluster span{color:#333;}#my-svg div.mermaidTooltip{position:absolute;text-align:center;max-width:200px;padding:2px;font-family:"trebuchet ms",verdana,arial,sans-serif;font-size:12px;background:hsl(80, 100%, 96.2745098039%);border:1px solid #aaaa33;border-radius:2px;pointer-events:none;z-index:100;}#my-svg .flowchartTitleText{text-anchor:middle;font-size:18px;fill:#333;}#my-svg rect.text{fill:none;stroke-width:0;}#my-svg .icon-shape,#my-svg .image-shape{background-color:rgba(232,232,232, 0.8);text-align:center;}#my-svg .icon-shape p,#my-svg .image-shape p{background-color:rgba(232,232,232, 0.8);padding:2px;}#my-svg .icon-shape rect,#my-svg .image-shape rect{opacity:0.5;background-color:rgba(232,232,232, 0.8);fill:rgba(232,232,232, 0.8);}#my-svg .label-icon{display:inline-block;height:1em;overflow:visible;vertical-align:-0.125em;}#my-svg .node .label-icon path{fill:currentColor;stroke:revert;stroke-width:revert;}#my-svg :root{--mermaid-font-family:"trebuchet ms",verdana,arial,sans-serif;}</style><g><marker orient="auto" markerHeight="8" markerWidth="8" markerUnits="userSpaceOnUse" refY="5" refX="5" viewBox="0 0 10 10" class="marker flowchart-v2" id="my-svg_flowchart-v2-pointEnd"><path style="stroke-width: 1; stroke-dasharray: 1, 0;" class="arrowMarkerPath" d="M 0 0 L 10 5 L 0 10 z"/></marker><marker orient="auto" markerHeight="8" markerWidth="8" markerUnits="userSpaceOnUse" refY="5" refX="4.5" viewBox="0 0 10 10" class="marker flowchart-v2" id="my-svg_flowchart-v2-pointStart"><path style="stroke-width: 1; stroke-dasharray: 1, 0;" class="arrowMarkerPath" d="M 0 5 L 10 10 L 10 0 z"/></marker><marker orient="auto" markerHeight="11" markerWidth="11" markerUnits="userSpaceOnUse" refY="5" refX="11" viewBox="0 0 10 10" class="marker flowchart-v2" id="my-svg_flowchart-v2-circleEnd"><circle style="stroke-width: 1; stroke-dasharray: 1, 0;" class="arrowMarkerPath" r="5" cy="5" cx="5"/></marker><marker orient="auto" markerHeight="11" markerWidth="11" markerUnits="userSpaceOnUse" refY="5" refX="-1" viewBox="0 0 10 10" class="marker flowchart-v2" id="my-svg_flowchart-v2-circleStart"><circle style="stroke-width: 1; stroke-dasharray: 1, 0;" class="arrowMarkerPath" r="5" cy="5" cx="5"/></marker><marker orient="auto" markerHeight="11" markerWidth="11" markerUnits="userSpaceOnUse" refY="5.2" refX="12" viewBox="0 0 11 11" class="marker cross flowchart-v2" id="my-svg_flowchart-v2-crossEnd"><path style="stroke-width: 2; stroke-dasharray: 1, 0;" class="arrowMarkerPath" d="M 1,1 l 9,9 M 10,1 l -9,9"/></marker><marker orient="auto" markerHeight="11" markerWidth="11" markerUnits="userSpaceOnUse" refY="5.2" refX="-1" viewBox="0 0 11 11" class="marker cross flowchart-v2" id="my-svg_flowchart-v2-crossStart"><path style="stroke-width: 2; stroke-dasharray: 1, 0;" class="arrowMarkerPath" d="M 1,1 l 9,9 M 10,1 l -9,9"/></marker><g class="root"><g class="clusters"><g data-look="classic" id="TrainEval" class="cluster"><rect height="324" width="886.453125" y="118" x="8" style=""/><g transform="translate(374.8984375, 118)" class="cluster-label"><foreignObject height="24" width="152.65625"><div style="display: table-cell; white-space: nowrap; line-height: 1.5; max-width: 200px; text-align: center;" xmlns="http://www.w3.org/1999/xhtml"><span class="nodeLabel"><p>Training &amp; Evaluation</p></span></div></foreignObject></g></g><g data-look="classic" id="DataLayer" class="cluster"><rect height="400.12809562683105" width="232.046875" y="457.08764457702637" x="2486.578125" style=""/><g transform="translate(2564.03125, 457.08764457702637)" class="cluster-label"><foreignObject height="24" width="77.140625"><div style="display: table-cell; white-space: nowrap; line-height: 1.5; max-width: 200px; text-align: center;" xmlns="http://www.w3.org/1999/xhtml"><span class="nodeLabel"><p>Data Layer</p></span></div></foreignObject></g></g><g data-look="classic" id="Backend" class="cluster"><rect height="540" width="275.40625" y="308" x="2161.171875" style=""/><g transform="translate(2234.453125, 308)" class="cluster-label"><foreignObject height="24" width="128.84375"><div style="display: table-cell; white-space: nowrap; line-height: 1.5; max-width: 200px; text-align: center;" xmlns="http://www.w3.org/1999/xhtml"><span class="nodeLabel"><p>Backend (FastAPI)</p></span></div></foreignObject></g></g><g data-look="classic" id="Ingestion_RAG" class="cluster"><rect height="218.33764457702637" width="1549.109375" y="8" x="1169.515625" style=""/><g transform="translate(1886.484375, 8)" class="cluster-label"><foreignObject height="24" width="115.171875"><div style="display: table-cell; white-space: nowrap; line-height: 1.5; max-width: 200px; text-align: center;" xmlns="http://www.w3.org/1999/xhtml"><span class="nodeLabel"><p>Ingestion &amp; RAG</p></span></div></foreignObject></g></g></g><g class="edgePaths"><path marker-end="url(#my-svg_flowchart-v2-pointEnd)" style="" class="edge-thickness-normal edge-pattern-solid edge-thickness-normal edge-pattern-solid flowchart-link" id="L_A_P_0" d="M1782.844,94L1841.732,94C1900.62,94,2018.396,94,2081.451,94C2144.505,94,2152.839,94,2163.121,94C2173.404,94,2185.635,94,2191.751,94L2197.867,94"/><path marker-end="url(#my-svg_flowchart-v2-pointEnd)" style="" class="edge-thickness-normal edge-pattern-solid edge-thickness-normal edge-pattern-solid flowchart-link" id="L_P_V_0" d="M2395.883,94L2402.665,94C2409.448,94,2423.013,94,2433.962,94C2444.911,94,2453.245,94,2461.578,94C2469.911,94,2478.245,94,2486.725,97.634C2495.206,101.267,2503.833,108.534,2508.147,112.168L2512.461,115.801"/><path marker-end="url(#my-svg_flowchart-v2-pointEnd)" marker-start="url(#my-svg_flowchart-v2-pointStart)" style="" class="edge-thickness-normal edge-pattern-solid edge-thickness-normal edge-pattern-solid flowchart-link" id="L_B1_D1_0" d="M2348.274,548.974L2362.992,540.326C2377.709,531.678,2407.144,514.383,2426.028,505.735C2444.911,497.088,2453.245,497.088,2461.578,497.088C2469.911,497.088,2478.245,497.088,2493.394,506.458C2508.543,515.828,2530.508,534.568,2541.49,543.939L2552.473,553.309"/><path marker-end="url(#my-svg_flowchart-v2-pointEnd)" marker-start="url(#my-svg_flowchart-v2-pointStart)" style="" class="edge-thickness-normal edge-pattern-solid edge-thickness-normal edge-pattern-solid flowchart-link" id="L_B2_D1_0" d="M2388.981,502.194L2396.914,504.677C2404.847,507.159,2420.713,512.123,2432.812,514.605C2444.911,517.088,2453.245,517.088,2461.578,517.088C2469.911,517.088,2478.245,517.088,2493.311,522.81C2508.377,528.532,2530.175,539.976,2541.075,545.698L2551.974,551.421"/><path marker-end="url(#my-svg_flowchart-v2-pointEnd)" marker-start="url(#my-svg_flowchart-v2-pointStart)" style="" class="edge-thickness-normal edge-pattern-solid edge-thickness-normal edge-pattern-solid flowchart-link" id="L_B3_V_0" d="M2375.914,370L2386.025,370C2396.135,370,2416.357,370,2430.634,329.772C2444.911,289.544,2453.245,209.089,2461.578,168.861C2469.911,128.633,2478.245,128.633,2485.922,129.268C2493.599,129.902,2500.621,131.171,2504.131,131.806L2507.642,132.44"/><path marker-end="url(#my-svg_flowchart-v2-pointEnd)" marker-start="url(#my-svg_flowchart-v2-pointStart)" style="" class="edge-thickness-normal edge-pattern-solid edge-thickness-normal edge-pattern-solid flowchart-link" id="L_B4_D1_0" d="M2348.274,652.974L2362.992,644.326C2377.709,635.678,2407.144,618.383,2426.028,609.735C2444.911,601.088,2453.245,601.088,2461.578,601.088C2469.911,601.088,2478.245,601.088,2493.247,598.931C2508.25,596.775,2529.921,592.463,2540.757,590.307L2551.593,588.15"/><path marker-end="url(#my-svg_flowchart-v2-pointEnd)" marker-start="url(#my-svg_flowchart-v2-pointStart)" style="" class="edge-thickness-normal edge-pattern-solid edge-thickness-normal edge-pattern-solid flowchart-link" id="L_B5_D2_0" d="M2415.578,786L2419.078,786C2422.578,786,2429.578,786,2437.245,786C2444.911,786,2453.245,786,2461.578,786C2469.911,786,2478.245,786,2492.704,786C2507.164,786,2527.75,786,2538.043,786L2548.336,786"/><path marker-end="url(#my-svg_flowchart-v2-pointEnd)" style="" class="edge-thickness-normal edge-pattern-solid edge-thickness-normal edge-pattern-solid flowchart-link" id="L_T1_V_0" d="M197.266,180L201.432,180C205.599,180,213.932,180,237.643,180C261.354,180,300.443,180,339.531,180C378.62,180,417.708,180,453.467,180C489.227,180,521.656,180,554.086,180C586.516,180,618.945,180,655.417,180C691.888,180,732.401,180,772.914,180C813.427,180,853.94,180,878.363,180C902.786,180,911.12,180,934.042,180C956.964,180,994.474,180,1031.984,180C1069.495,180,1107.005,180,1129.927,180C1152.849,180,1161.182,180,1245.904,180C1330.625,180,1491.734,180,1652.844,180C1813.953,180,1975.063,180,2059.784,180C2144.505,180,2152.839,180,2179.956,180C2207.073,180,2252.974,180,2298.875,180C2344.776,180,2390.677,180,2417.794,180C2444.911,180,2453.245,180,2461.578,180C2469.911,180,2478.245,180,2485.933,179.077C2493.622,178.155,2500.665,176.309,2504.187,175.387L2507.709,174.464"/><path marker-end="url(#my-svg_flowchart-v2-pointEnd)" style="" class="edge-thickness-normal edge-pattern-solid edge-thickness-normal edge-pattern-solid flowchart-link" id="L_T1_Datasets_0" d="M136.247,207L150.583,225.333C164.92,243.667,193.593,280.333,224.297,324.769C255.002,369.204,287.738,421.407,304.107,447.509L320.475,473.611"/><path marker-end="url(#my-svg_flowchart-v2-pointEnd)" style="" class="edge-thickness-normal edge-pattern-solid edge-thickness-normal edge-pattern-solid flowchart-link" id="L_Datasets_T2_0" d="M355.522,477L372.401,448.5C389.28,420,423.039,363,443.797,334.5C464.555,306,472.313,306,476.191,306L480.07,306"/><path marker-end="url(#my-svg_flowchart-v2-pointEnd)" style="" class="edge-thickness-normal edge-pattern-solid edge-thickness-normal edge-pattern-solid flowchart-link" id="L_T2_T3_0" d="M624.102,306L628.647,306C633.193,306,642.284,306,657.95,311.856C673.617,317.712,695.859,329.424,706.98,335.28L718.1,341.136"/><path marker-end="url(#my-svg_flowchart-v2-pointEnd)" style="" class="edge-thickness-normal edge-pattern-solid edge-thickness-normal edge-pattern-solid flowchart-link" id="L_T3_DeployedModels_0" d="M862.32,370L867.676,370C873.031,370,883.742,370,893.264,370C902.786,370,911.12,370,918.786,370C926.453,370,933.453,370,936.953,370L940.453,370"/><path marker-end="url(#my-svg_flowchart-v2-pointEnd)" style="" class="edge-thickness-normal edge-pattern-solid edge-thickness-normal edge-pattern-solid flowchart-link" id="L_T4_Reports_0" d="M869.453,254L873.62,254C877.786,254,886.12,254,894.453,254C902.786,254,911.12,254,923.88,254C936.641,254,953.828,254,962.422,254L971.016,254"/><path marker-end="url(#my-svg_flowchart-v2-pointEnd)" style="" class="edge-thickness-normal edge-pattern-solid edge-thickness-normal edge-pattern-solid flowchart-link" id="L_T5_Preferences_0" d="M431.797,326L435.964,326C440.13,326,448.464,326,466.066,350.582C483.668,375.163,510.539,424.327,523.975,448.908L537.41,473.49"/><path marker-end="url(#my-svg_flowchart-v2-pointEnd)" style="" class="edge-thickness-normal edge-pattern-solid edge-thickness-normal edge-pattern-solid flowchart-link" id="L_Preferences_T3_0" d="M579.589,477L591.553,464.333C603.518,451.667,627.446,426.333,644.12,412.465C660.794,398.598,670.213,396.195,674.922,394.994L679.632,393.793"/><path marker-end="url(#my-svg_flowchart-v2-pointEnd)" marker-start="url(#my-svg_flowchart-v2-pointStart)" style="" class="edge-thickness-normal edge-pattern-solid edge-thickness-normal edge-pattern-solid flowchart-link" id="L_UI_Backend_0" d="M1765.391,578L1827.188,578C1888.984,578,2012.578,578,2077.875,578C2143.172,578,2150.172,578,2153.672,578L2157.172,578"/><path marker-end="url(#my-svg_flowchart-v2-pointEnd)" marker-start="url(#my-svg_flowchart-v2-pointStart)" style="" class="edge-thickness-normal edge-pattern-solid edge-thickness-normal edge-pattern-solid flowchart-link" id="L_Backend_DataLayer_0" d="M2440.578,621.088L2444.078,621.088C2447.578,621.088,2454.578,621.088,2461.578,621.088C2468.578,621.088,2475.578,621.088,2479.078,621.088L2482.578,621.088"/><path marker-end="url(#my-svg_flowchart-v2-pointEnd)" marker-start="url(#my-svg_flowchart-v2-pointStart)" style="" class="edge-thickness-normal edge-pattern-solid edge-thickness-normal edge-pattern-solid flowchart-link" id="L_Agents_B3_0" d="M2115.172,370L2118.672,370C2122.172,370,2129.172,370,2136.839,370C2144.505,370,2152.839,370,2167.116,370C2181.393,370,2201.615,370,2211.725,370L2221.836,370"/><path marker-end="url(#my-svg_flowchart-v2-pointEnd)" style="" class="edge-thickness-normal edge-pattern-solid edge-thickness-normal edge-pattern-solid flowchart-link" id="L_Ingestion_RAG_V_0" d="M2515.578,174.319Z"/><path marker-end="url(#my-svg_flowchart-v2-pointEnd)" style="" class="edge-thickness-normal edge-pattern-solid edge-thickness-normal edge-pattern-solid flowchart-link" id="L_DeployedModels_Agents_0" d="M1119.516,370L1123.682,370C1127.849,370,1136.182,370,1144.516,370C1152.849,370,1161.182,370,1168.849,370C1176.516,370,1183.516,370,1187.016,370L1190.516,370"/></g><g class="edgeLabels"><g class="edgeLabel"><g transform="translate(0, 0)" class="label"><foreignObject height="0" width="0"><div style="display: table-cell; white-space: nowrap; line-height: 1.5; max-width: 200px; text-align: center;" class="labelBkg" xmlns="http://www.w3.org/1999/xhtml"><span class="edgeLabel"></span></div></foreignObject></g></g><g class="edgeLabel"><g transform="translate(0, 0)" class="label"><foreignObject height="0" width="0"><div style="display: table-cell; white-space: nowrap; line-height: 1.5; max-width: 200px; text-align: center;" class="labelBkg" xmlns="http://www.w3.org/1999/xhtml"><span class="edgeLabel"></span></div></foreignObject></g></g><g class="edgeLabel"><g transform="translate(0, 0)" class="label"><foreignObject height="0" width="0"><div style="display: table-cell; white-space: nowrap; line-height: 1.5; max-width: 200px; text-align: center;" class="labelBkg" xmlns="http://www.w3.org/1999/xhtml"><span class="edgeLabel"></span></div></foreignObject></g></g><g class="edgeLabel"><g transform="translate(0, 0)" class="label"><foreignObject height="0" width="0"><div style="display: table-cell; white-space: nowrap; line-height: 1.5; max-width: 200px; text-align: center;" class="labelBkg" xmlns="http://www.w3.org/1999/xhtml"><span class="edgeLabel"></span></div></foreignObject></g></g><g class="edgeLabel"><g transform="translate(0, 0)" class="label"><foreignObject height="0" width="0"><div style="display: table-cell; white-space: nowrap; line-height: 1.5; max-width: 200px; text-align: center;" class="labelBkg" xmlns="http://www.w3.org/1999/xhtml"><span class="edgeLabel"></span></div></foreignObject></g></g><g class="edgeLabel"><g transform="translate(0, 0)" class="label"><foreignObject height="0" width="0"><div style="display: table-cell; white-space: nowrap; line-height: 1.5; max-width: 200px; text-align: center;" class="labelBkg" xmlns="http://www.w3.org/1999/xhtml"><span class="edgeLabel"></span></div></foreignObject></g></g><g class="edgeLabel"><g transform="translate(0, 0)" class="label"><foreignObject height="0" width="0"><div style="display: table-cell; white-space: nowrap; line-height: 1.5; max-width: 200px; text-align: center;" class="labelBkg" xmlns="http://www.w3.org/1999/xhtml"><span class="edgeLabel"></span></div></foreignObject></g></g><g class="edgeLabel"><g transform="translate(0, 0)" class="label"><foreignObject height="0" width="0"><div style="display: table-cell; white-space: nowrap; line-height: 1.5; max-width: 200px; text-align: center;" class="labelBkg" xmlns="http://www.w3.org/1999/xhtml"><span class="edgeLabel"></span></div></foreignObject></g></g><g class="edgeLabel"><g transform="translate(0, 0)" class="label"><foreignObject height="0" width="0"><div style="display: table-cell; white-space: nowrap; line-height: 1.5; max-width: 200px; text-align: center;" class="labelBkg" xmlns="http://www.w3.org/1999/xhtml"><span class="edgeLabel"></span></div></foreignObject></g></g><g class="edgeLabel"><g transform="translate(0, 0)" class="label"><foreignObject height="0" width="0"><div style="display: table-cell; white-space: nowrap; line-height: 1.5; max-width: 200px; text-align: center;" class="labelBkg" xmlns="http://www.w3.org/1999/xhtml"><span class="edgeLabel"></span></div></foreignObject></g></g><g class="edgeLabel"><g transform="translate(0, 0)" class="label"><foreignObject height="0" width="0"><div style="display: table-cell; white-space: nowrap; line-height: 1.5; max-width: 200px; text-align: center;" class="labelBkg" xmlns="http://www.w3.org/1999/xhtml"><span class="edgeLabel"></span></div></foreignObject></g></g><g class="edgeLabel"><g transform="translate(0, 0)" class="label"><foreignObject height="0" width="0"><div style="display: table-cell; white-space: nowrap; line-height: 1.5; max-width: 200px; text-align: center;" class="labelBkg" xmlns="http://www.w3.org/1999/xhtml"><span class="edgeLabel"></span></div></foreignObject></g></g><g class="edgeLabel"><g transform="translate(0, 0)" class="label"><foreignObject height="0" width="0"><div style="display: table-cell; white-space: nowrap; line-height: 1.5; max-width: 200px; text-align: center;" class="labelBkg" xmlns="http://www.w3.org/1999/xhtml"><span class="edgeLabel"></span></div></foreignObject></g></g><g class="edgeLabel"><g transform="translate(0, 0)" class="label"><foreignObject height="0" width="0"><div style="display: table-cell; white-space: nowrap; line-height: 1.5; max-width: 200px; text-align: center;" class="labelBkg" xmlns="http://www.w3.org/1999/xhtml"><span class="edgeLabel"></span></div></foreignObject></g></g><g class="edgeLabel"><g transform="translate(0, 0)" class="label"><foreignObject height="0" width="0"><div style="display: table-cell; white-space: nowrap; line-height: 1.5; max-width: 200px; text-align: center;" class="labelBkg" xmlns="http://www.w3.org/1999/xhtml"><span class="edgeLabel"></span></div></foreignObject></g></g><g class="edgeLabel"><g transform="translate(0, 0)" class="label"><foreignObject height="0" width="0"><div style="display: table-cell; white-space: nowrap; line-height: 1.5; max-width: 200px; text-align: center;" class="labelBkg" xmlns="http://www.w3.org/1999/xhtml"><span class="edgeLabel"></span></div></foreignObject></g></g><g class="edgeLabel"><g transform="translate(0, 0)" class="label"><foreignObject height="0" width="0"><div style="display: table-cell; white-space: nowrap; line-height: 1.5; max-width: 200px; text-align: center;" class="labelBkg" xmlns="http://www.w3.org/1999/xhtml"><span class="edgeLabel"></span></div></foreignObject></g></g><g class="edgeLabel"><g transform="translate(0, 0)" class="label"><foreignObject height="0" width="0"><div style="display: table-cell; white-space: nowrap; line-height: 1.5; max-width: 200px; text-align: center;" class="labelBkg" xmlns="http://www.w3.org/1999/xhtml"><span class="edgeLabel"></span></div></foreignObject></g></g><g class="edgeLabel"><g transform="translate(0, 0)" class="label"><foreignObject height="0" width="0"><div style="display: table-cell; white-space: nowrap; line-height: 1.5; max-width: 200px; text-align: center;" class="labelBkg" xmlns="http://www.w3.org/1999/xhtml"><span class="edgeLabel"></span></div></foreignObject></g></g><g class="edgeLabel"><g transform="translate(0, 0)" class="label"><foreignObject height="0" width="0"><div style="display: table-cell; white-space: nowrap; line-height: 1.5; max-width: 200px; text-align: center;" class="labelBkg" xmlns="http://www.w3.org/1999/xhtml"><span class="edgeLabel"></span></div></foreignObject></g></g></g><g class="nodes"><g transform="translate(1186.515625, 297.5)" class="root"><g class="clusters"><g data-look="classic" id="Agents" class="cluster"><rect height="129" width="916.65625" y="8" x="8" style=""/><g transform="translate(426.703125, 8)" class="cluster-label"><foreignObject height="24" width="79.25"><div style="display: table-cell; white-space: nowrap; line-height: 1.5; max-width: 200px; text-align: center;" xmlns="http://www.w3.org/1999/xhtml"><span class="nodeLabel"><p>LLM Agents</p></span></div></foreignObject></g></g></g><g class="edgePaths"/><g class="edgeLabels"/><g class="nodes"><g transform="translate(130.296875, 72.5)" id="flowchart-L1-9" class="node default"><rect height="54" width="174.59375" y="-27" x="-87.296875" style="" class="basic label-container"/><g transform="translate(-57.296875, -12)" style="" class="label"><rect/><foreignObject height="24" width="114.59375"><div style="display: table-cell; white-space: nowrap; line-height: 1.5; max-width: 200px; text-align: center;" xmlns="http://www.w3.org/1999/xhtml"><span class="nodeLabel"><p>Screening Agent</p></span></div></foreignObject></g></g><g transform="translate(369.0703125, 72.5)" id="flowchart-L2-10" class="node default"><rect height="54" width="202.953125" y="-27" x="-101.4765625" style="" class="basic label-container"/><g transform="translate(-71.4765625, -12)" style="" class="label"><rect/><foreignObject height="24" width="142.953125"><div style="display: table-cell; white-space: nowrap; line-height: 1.5; max-width: 200px; text-align: center;" xmlns="http://www.w3.org/1999/xhtml"><span class="nodeLabel"><p>M&amp;V Planning Agent</p></span></div></foreignObject></g></g><g transform="translate(601.515625, 72.5)" id="flowchart-L3-11" class="node default"><rect height="54" width="161.9375" y="-27" x="-80.96875" style="" class="basic label-container"/><g transform="translate(-50.96875, -12)" style="" class="label"><rect/><foreignObject height="24" width="101.9375"><div style="display: table-cell; white-space: nowrap; line-height: 1.5; max-width: 200px; text-align: center;" xmlns="http://www.w3.org/1999/xhtml"><span class="nodeLabel"><p>Analysis Agent</p></span></div></foreignObject></g></g><g transform="translate(811.0703125, 72.5)" id="flowchart-L4-12" class="node default"><rect height="54" width="157.171875" y="-27" x="-78.5859375" style="" class="basic label-container"/><g transform="translate(-48.5859375, -12)" style="" class="label"><rect/><foreignObject height="24" width="97.171875"><div style="display: table-cell; white-space: nowrap; line-height: 1.5; max-width: 200px; text-align: center;" xmlns="http://www.w3.org/1999/xhtml"><span class="nodeLabel"><p>Report Writer</p></span></div></foreignObject></g></g></g></g><g transform="translate(1652.84375, 94)" id="flowchart-A-0" class="node default"><rect height="102" width="260" y="-51" x="-130" style="" class="basic label-container"/><g transform="translate(-100, -36)" style="" class="label"><rect/><foreignObject height="72" width="200"><div style="display: table; white-space: break-spaces; line-height: 1.5; max-width: 200px; text-align: center; width: 200px;" xmlns="http://www.w3.org/1999/xhtml"><span class="nodeLabel"><p>ITV Validation Full Reports &amp; Summaries<br />Standards &amp; Guidelines</p></span></div></foreignObject></g></g><g transform="translate(2298.875, 94)" id="flowchart-P-1" class="node default"><rect height="54" width="194.015625" y="-27" x="-97.0078125" style="" class="basic label-container"/><g transform="translate(-67.0078125, -12)" style="" class="label"><rect/><foreignObject height="24" width="134.015625"><div style="display: table-cell; white-space: nowrap; line-height: 1.5; max-width: 200px; text-align: center;" xmlns="http://www.w3.org/1999/xhtml"><span class="nodeLabel"><p>Parsers / Chunkers</p></span></div></foreignObject></g></g><g transform="translate(2602.6015625, 149.6040439605713)" id="flowchart-V-3" class="node default"><path transform="translate(-91.0234375, -41.733601343443084)" style="" class="basic label-container" d="M0,14.822400895628721 a91.0234375,14.822400895628721 0,0,0 182.046875,0 a91.0234375,14.822400895628721 0,0,0 -182.046875,0 l0,53.82240089562872 a91.0234375,14.822400895628721 0,0,0 182.046875,0 l0,-53.82240089562872"/><g transform="translate(-83.5234375, -2)" style="" class="label"><rect/><foreignObject height="24" width="167.046875"><div style="display: table-cell; white-space: nowrap; line-height: 1.5; max-width: 200px; text-align: center;" xmlns="http://www.w3.org/1999/xhtml"><span class="nodeLabel"><p>ChromaDB Vector Store</p></span></div></foreignObject></g></g><g transform="translate(2298.875, 578)" id="flowchart-B1-4" class="node default"><rect height="54" width="195.75" y="-27" x="-97.875" style="" class="basic label-container"/><g transform="translate(-67.875, -12)" style="" class="label"><rect/><foreignObject height="24" width="135.75"><div style="display: table-cell; white-space: nowrap; line-height: 1.5; max-width: 200px; text-align: center;" xmlns="http://www.w3.org/1999/xhtml"><span class="nodeLabel"><p>Technology Service</p></span></div></foreignObject></g></g><g transform="translate(2298.875, 474)" id="flowchart-B2-5" class="node default"><rect height="54" width="187.890625" y="-27" x="-93.9453125" style="" class="basic label-container"/><g transform="translate(-63.9453125, -12)" style="" class="label"><rect/><foreignObject height="24" width="127.890625"><div style="display: table-cell; white-space: nowrap; line-height: 1.5; max-width: 200px; text-align: center;" xmlns="http://www.w3.org/1999/xhtml"><span class="nodeLabel"><p>Validation Service</p></span></div></foreignObject></g></g><g transform="translate(2298.875, 370)" id="flowchart-B3-6" class="node default"><rect height="54" width="146.078125" y="-27" x="-73.0390625" style="" class="basic label-container"/><g transform="translate(-43.0390625, -12)" style="" class="label"><rect/><foreignObject height="24" width="86.078125"><div style="display: table-cell; white-space: nowrap; line-height: 1.5; max-width: 200px; text-align: center;" xmlns="http://www.w3.org/1999/xhtml"><span class="nodeLabel"><p>RAG Service</p></span></div></foreignObject></g></g><g transform="translate(2298.875, 682)" id="flowchart-B4-7" class="node default"><rect height="54" width="185.296875" y="-27" x="-92.6484375" style="" class="basic label-container"/><g transform="translate(-62.6484375, -12)" style="" class="label"><rect/><foreignObject height="24" width="125.296875"><div style="display: table-cell; white-space: nowrap; line-height: 1.5; max-width: 200px; text-align: center;" xmlns="http://www.w3.org/1999/xhtml"><span class="nodeLabel"><p>Reporting Service</p></span></div></foreignObject></g></g><g transform="translate(2298.875, 786)" id="flowchart-B5-8" class="node default"><rect height="54" width="225.40625" y="-27" x="-112.703125" style="" class="basic label-container"/><g transform="translate(-82.703125, -12)" style="" class="label"><rect/><foreignObject height="24" width="165.40625"><div style="display: table-cell; white-space: nowrap; line-height: 1.5; max-width: 200px; text-align: center;" xmlns="http://www.w3.org/1999/xhtml"><span class="nodeLabel"><p>Monitoring / Telemetry</p></span></div></foreignObject></g></g><g transform="translate(2602.6015625, 578)" id="flowchart-D1-13" class="node default"><path transform="translate(-47.0859375, -35.61267555428816)" style="" class="basic label-container" d="M0,10.741783702858772 a47.0859375,10.741783702858772 0,0,0 94.171875,0 a47.0859375,10.741783702858772 0,0,0 -94.171875,0 l0,49.74178370285877 a47.0859375,10.741783702858772 0,0,0 94.171875,0 l0,-49.74178370285877"/><g transform="translate(-39.5859375, -2)" style="" class="label"><rect/><foreignObject height="24" width="79.171875"><div style="display: table-cell; white-space: nowrap; line-height: 1.5; max-width: 200px; text-align: center;" xmlns="http://www.w3.org/1999/xhtml"><span class="nodeLabel"><p>PostgreSQL</p></span></div></foreignObject></g></g><g transform="translate(2602.6015625, 786)" id="flowchart-D2-14" class="node default"><path transform="translate(-50.265625, -36.21574061244284)" style="" class="basic label-container" d="M0,11.143827074961894 a50.265625,11.143827074961894 0,0,0 100.53125,0 a50.265625,11.143827074961894 0,0,0 -100.53125,0 l0,50.14382707496189 a50.265625,11.143827074961894 0,0,0 100.53125,0 l0,-50.14382707496189"/><g transform="translate(-42.765625, -2)" style="" class="label"><rect/><foreignObject height="24" width="85.53125"><div style="display: table-cell; white-space: nowrap; line-height: 1.5; max-width: 200px; text-align: center;" xmlns="http://www.w3.org/1999/xhtml"><span class="nodeLabel"><p>Redis Cache</p></span></div></foreignObject></g></g><g transform="translate(115.1328125, 180)" id="flowchart-T1-16" class="node default"><rect height="54" width="164.265625" y="-27" x="-82.1328125" style="" class="basic label-container"/><g transform="translate(-52.1328125, -12)" style="" class="label"><rect/><foreignObject height="24" width="104.265625"><div style="display: table-cell; white-space: nowrap; line-height: 1.5; max-width: 200px; text-align: center;" xmlns="http://www.w3.org/1999/xhtml"><span class="nodeLabel"><p>Corpus Builder</p></span></div></foreignObject></g></g><g transform="translate(554.0859375, 306)" id="flowchart-T2-17" class="node default"><rect height="54" width="140.03125" y="-27" x="-70.015625" style="" class="basic label-container"/><g transform="translate(-40.015625, -12)" style="" class="label"><rect/><foreignObject height="24" width="80.03125"><div style="display: table-cell; white-space: nowrap; line-height: 1.5; max-width: 200px; text-align: center;" xmlns="http://www.w3.org/1999/xhtml"><span class="nodeLabel"><p>SFT Trainer</p></span></div></foreignObject></g></g><g transform="translate(772.9140625, 370)" id="flowchart-T3-18" class="node default"><rect height="54" width="178.8125" y="-27" x="-89.40625" style="" class="basic label-container"/><g transform="translate(-59.40625, -12)" style="" class="label"><rect/><foreignObject height="24" width="118.8125"><div style="display: table-cell; white-space: nowrap; line-height: 1.5; max-width: 200px; text-align: center;" xmlns="http://www.w3.org/1999/xhtml"><span class="nodeLabel"><p>DPO/ORPO RLHF</p></span></div></foreignObject></g></g><g transform="translate(772.9140625, 254)" id="flowchart-T4-19" class="node default"><rect height="78" width="193.078125" y="-39" x="-96.5390625" style="" class="basic label-container"/><g transform="translate(-66.5390625, -24)" style="" class="label"><rect/><foreignObject height="48" width="133.078125"><div style="display: table-cell; white-space: nowrap; line-height: 1.5; max-width: 200px; text-align: center;" xmlns="http://www.w3.org/1999/xhtml"><span class="nodeLabel"><p>Eval Harness<br />(Rubrics + Metrics)</p></span></div></foreignObject></g></g><g transform="translate(339.53125, 326)" id="flowchart-T5-20" class="node default"><rect height="54" width="184.53125" y="-27" x="-92.265625" style="" class="basic label-container"/><g transform="translate(-62.265625, -12)" style="" class="label"><rect/><foreignObject height="24" width="124.53125"><div style="display: table-cell; white-space: nowrap; line-height: 1.5; max-width: 200px; text-align: center;" xmlns="http://www.w3.org/1999/xhtml"><span class="nodeLabel"><p>Human Review UI</p></span></div></foreignObject></g></g><g transform="translate(1652.84375, 578)" id="flowchart-UI-21" class="node default"><rect height="54" width="217.09375" y="-27" x="-108.546875" style="" class="basic label-container"/><g transform="translate(-78.546875, -12)" style="" class="label"><rect/><foreignObject height="24" width="157.09375"><div style="display: table-cell; white-space: nowrap; line-height: 1.5; max-width: 200px; text-align: center;" xmlns="http://www.w3.org/1999/xhtml"><span class="nodeLabel"><p>Admin / Dashboard UI</p></span></div></foreignObject></g></g><g transform="translate(339.53125, 504)" id="flowchart-Datasets-43" class="node default"><rect height="54" width="121" y="-27" x="-60.5" style="" class="basic label-container"/><g transform="translate(-30.5, -12)" style="" class="label"><rect/><foreignObject height="24" width="61"><div style="display: table-cell; white-space: nowrap; line-height: 1.5; max-width: 200px; text-align: center;" xmlns="http://www.w3.org/1999/xhtml"><span class="nodeLabel"><p>Datasets</p></span></div></foreignObject></g></g><g transform="translate(1031.984375, 370)" id="flowchart-DeployedModels-47" class="node default"><rect height="54" width="175.0625" y="-27" x="-87.53125" style="" class="basic label-container"/><g transform="translate(-57.53125, -12)" style="" class="label"><rect/><foreignObject height="24" width="115.0625"><div style="display: table-cell; white-space: nowrap; line-height: 1.5; max-width: 200px; text-align: center;" xmlns="http://www.w3.org/1999/xhtml"><span class="nodeLabel"><p>DeployedModels</p></span></div></foreignObject></g></g><g transform="translate(1031.984375, 254)" id="flowchart-Reports-51" class="node default"><rect height="54" width="113.9375" y="-27" x="-56.96875" style="" class="basic label-container"/><g transform="translate(-26.96875, -12)" style="" class="label"><rect/><foreignObject height="24" width="53.9375"><div style="display: table-cell; white-space: nowrap; line-height: 1.5; max-width: 200px; text-align: center;" xmlns="http://www.w3.org/1999/xhtml"><span class="nodeLabel"><p>Reports</p></span></div></foreignObject></g></g><g transform="translate(554.0859375, 504)" id="flowchart-Preferences-53" class="node default"><rect height="54" width="144.578125" y="-27" x="-72.2890625" style="" class="basic label-container"/><g transform="translate(-42.2890625, -12)" style="" class="label"><rect/><foreignObject height="24" width="84.578125"><div style="display: table-cell; white-space: nowrap; line-height: 1.5; max-width: 200px; text-align: center;" xmlns="http://www.w3.org/1999/xhtml"><span class="nodeLabel"><p>Preferences</p></span></div></foreignObject></g></g></g></g></g></svg>